<svg id="Capa_1" data-name="Capa 1" xmlns="http://www.w3.org/2000/svg" viewBox="0 0 512 512"><defs><style>.cls-1{fill:#1d1d1b;}.cls-2{fill:#fff;}</style></defs><rect class="cls-1" x="13" y="11.2" width="487.41" height="487.41" rx="15"/><path class="cls-1" d="M485.41,14.2a12,12,0,0,1,12,12V483.61a12,12,0,0,1-12,12H28a12,12,0,0,1-12-12V26.2a12,12,0,0,1,12-12H485.41m0-6H28a18,18,0,0,0-18,18V483.61a18,18,0,0,0,18,18H485.41a18,18,0,0,0,18-18V26.2a18,18,0,0,0-18-18Z"/><path class="cls-2" d="M468.1,295H427.23A143.48,143.48,0,0,1,423,269.55c-14.29,19.27-39.47,29.74-75.31,29.74-74.85,0-116.67-56.57-116.67-130,0-77.52,45.1-135.91,126.38-135.91,66.36,0,105.41,37.45,111.66,81.42H413.26c-5.29-17.27-18.92-37.7-56.64-37.7-52.95,0-68.05,44.29-68.05,89.75,0,44.37,17.27,88.06,68.39,88.06,47.67,0,56.45-33.09,56.45-56.16v-2.33H356.87v-45.7H468.1Z"/><path class="cls-2" d="M94.16,444.75c-5,7.2-12,12.86-24.2,12.86-11.22,0-20.85-8.25-20.85-25.51,0-22.16,14.16-43.91,35.11-43.91,12.12,0,18,6.35,19.19,12.17a105.37,105.37,0,0,1,2.78-10.84h6.26c-.94,3.88-2.28,9.78-4.16,18.89L92.42,483H85.91ZM55.92,431.8c0,12.2,5.42,19.49,16.15,19.49,15.25,0,23.86-14.43,27.05-30.13,3.19-15.9,0-26.65-15.75-26.65C66.37,394.51,55.92,413.92,55.92,431.8Z"/><path class="cls-2" d="M165.12,438.39c-1.34,6-2.54,12.54-3.47,17.88h-6.39a126.46,126.46,0,0,1,2.25-13c-4.16,7.86-12,14.33-23.31,14.33-12,0-20.41-6.19-16.29-25.2l9.35-42.89h6.39l-9.08,42.58c-2.12,9.68-2.22,19.44,10.86,19.44,12,0,22.25-8.88,26.76-30.22l6.81-31.8h6.53Z"/><path class="cls-2" d="M190.5,389.52H197l-14.15,66.75h-6.53ZM197.16,358h6.53L201,371h-6.53Z"/><path class="cls-2" d="M250.36,437.51c-5.17,12.82-14.64,20.1-27.87,20.1-16,0-23.16-11.19-23.16-26.29,0-20.54,11.21-43.13,33.57-43.13,16.93,0,22.14,12.48,21.47,21.93h-6.52c-.4-9.12-4.74-15.89-15.75-15.89-17.51,0-26,19.47-26,36.42,0,14.82,7,20.92,17.45,20.92,8.75,0,15.76-5.56,20.12-14.06Z"/><path class="cls-2" d="M268.83,422.5c6.79-5.89,28.88-24,39.27-33h8.95c-10.39,8.82-20.79,17.36-30.91,25.9l19.14,40.85h-7.49l-16.92-36.81L267.44,430l-5.58,26.31h-6.53L276.14,358h6.52Z"/><path class="cls-2" d="M370.47,450.18c0,21.68-9,34-31,34-20.51,0-26.81-11.49-28-20.69H323.3c2,7.42,7.93,11.34,16.64,11.34,15.35,0,19.17-9.74,19.17-25.31v-5.47c-3.61,7.58-9.81,11.87-21.15,11.87-16.65,0-28-13.57-28-33.4,0-22.08,12.85-35.52,29.21-35.52,12.9,0,18.39,6.08,19.93,10.56.13-3.06.4-7.54.54-8.95h11c-.05,3.91-.22,13-.22,19.53ZM322.09,422c0,14.27,7.41,23.95,18.47,23.95,14.6,0,18.87-9.8,18.87-24.83,0-15.2-4-24.23-18.47-24.23C328.46,396.93,322.09,407.4,322.09,422Z"/><path class="cls-2" d="M383.71,358.33h11.68v14.6H383.71Zm0,30.3h11.68v67.64H383.71Z"/><path class="cls-2" d="M464.39,450.18c0,21.68-8.95,34-31,34-20.5,0-26.81-11.49-28-20.69h11.9c2,7.42,7.93,11.34,16.64,11.34,15.36,0,19.17-9.74,19.17-25.31v-5.47c-3.61,7.58-9.81,11.87-21.15,11.87-16.65,0-28-13.57-28-33.4,0-22.08,12.85-35.52,29.21-35.52,12.9,0,18.39,6.08,19.93,10.56.13-3.06.41-7.54.54-8.95h11c-.05,3.91-.22,13-.22,19.53ZM416,422c0,14.27,7.42,23.95,18.48,23.95,14.59,0,18.86-9.8,18.86-24.83,0-15.2-4-24.23-18.46-24.23C422.38,396.93,416,407.4,416,422Z"/><path class="cls-2" d="M283.4,170.77c0,71.77-43.09,133.56-126.85,133.56-80.93,0-123.28-58.82-123.28-132.68C33.27,96.6,80.05,39,160.16,39,235.6,39,283.4,91.83,283.4,170.77Zm-192.55-.24c0,50.34,22.1,88.42,67.81,88.42,49.59,0,67.15-41.52,67.15-87.48,0-48.78-20-87.12-68.05-87.12C111.18,84.35,90.85,120.32,90.85,170.53ZM270.17,348.42,159.23,298.77l72.07-39.91"/></svg>