<svg id="Capa_1" data-name="Capa 1" xmlns="http://www.w3.org/2000/svg" viewBox="0 0 512 512"><defs><style>.cls-1{fill:#fff;}.cls-2{fill:#1d1d1b;}</style></defs><rect class="cls-1" x="13.1" y="13.27" width="486.72" height="486.72" rx="15"/><path class="cls-2" d="M484.82,16.27a12,12,0,0,1,12,12V485a12,12,0,0,1-12,12H28.1a12,12,0,0,1-12-12V28.27a12,12,0,0,1,12-12H484.82m0-6H28.1a18,18,0,0,0-18,18V485a18,18,0,0,0,18,18H484.82a18,18,0,0,0,18-18V28.27a18,18,0,0,0-18-18Z"/><path class="cls-2" d="M467.55,294.53H426.74a143,143,0,0,1-4.26-25.39c-14.27,19.24-39.41,29.7-75.2,29.7-74.75,0-116.51-56.49-116.51-129.83,0-77.41,45-135.72,126.21-135.72,66.26,0,105.25,37.4,111.5,81.31H412.8C407.51,97.35,393.9,77,356.23,77c-52.87,0-68,44.22-68,89.61,0,44.31,17.26,87.94,68.3,87.94,47.61,0,56.38-33,56.38-56.08V196.1H356.48V150.46H467.55Z"/><path class="cls-2" d="M92.56,444.09c-4.94,7.19-12,12.84-24.17,12.84-11.2,0-20.82-8.24-20.82-25.47,0-22.13,14.14-43.85,35.06-43.85,12.11,0,18,6.34,19.16,12.15a105.33,105.33,0,0,1,2.78-10.82h6.25c-.94,3.88-2.28,9.77-4.15,18.86L90.82,482.24h-6.5ZM54.37,431.16c0,12.18,5.42,19.46,16.13,19.46,15.23,0,23.83-14.41,27-30.08,3.18-15.88,0-26.62-15.73-26.62C64.81,393.92,54.37,413.3,54.37,431.16Z"/><path class="cls-2" d="M163.42,437.74c-1.34,6-2.54,12.53-3.47,17.86h-6.38a125.88,125.88,0,0,1,2.25-13c-4.16,7.85-12,14.31-23.28,14.31-12,0-20.38-6.18-16.27-25.16l9.34-42.83H132l-9.06,42.52c-2.12,9.67-2.23,19.42,10.84,19.42,12,0,22.22-8.87,26.72-30.19l6.8-31.75h6.52Z"/><path class="cls-2" d="M188.77,388.94h6.51L181.15,455.6h-6.52Zm6.64-31.5h6.52l-2.69,13h-6.51Z"/><path class="cls-2" d="M248.54,436.87c-5.17,12.79-14.62,20.06-27.84,20.06-16,0-23.12-11.17-23.12-26.25,0-20.51,11.2-43.07,33.52-43.07,16.9,0,22.11,12.46,21.44,21.9H246c-.4-9.1-4.73-15.87-15.73-15.87-17.48,0-25.93,19.45-25.93,36.37,0,14.8,7,20.89,17.43,20.89,8.73,0,15.73-5.55,20.09-14Z"/><path class="cls-2" d="M267,421.87c6.78-5.88,28.84-24,39.21-32.93h8.94c-10.37,8.8-20.76,17.34-30.87,25.87l19.12,40.79H295.9L279,418.83l-13.41,10.49L260,455.6H253.5l20.78-98.16h6.51Z"/><path class="cls-2" d="M369.56,449.07c0,21.74-8.8,34.39-31.62,34.39-21.38,0-27.42-12-28.54-20.88h13.34c1.85,6.89,7.32,10.68,15.77,10.68,14.77,0,18.3-9.32,18.3-24.48v-5c-3.6,7.27-9.71,11.45-20.8,11.45-16.92,0-28.06-13.81-28.06-33.37,0-22,12.85-35.63,29.36-35.63,12.68,0,18.05,6,19.5,10.21.13-2.83.44-7.26.58-8.61h12.37c-.06,4.33-.2,13-.2,19.56Zm-48.07-27.83c0,13.8,7.12,22.95,17.67,22.95,14,0,18-9.42,18-23.77,0-14.5-3.63-23.32-17.62-23.32C327.87,397.1,321.49,406.78,321.49,421.24Z"/><path class="cls-2" d="M382.23,357.9h13.08v15H382.23Zm0,29.88h13.08V455.6H382.23Z"/><path class="cls-2" d="M465.08,449.07c0,21.74-8.79,34.39-31.62,34.39-21.38,0-27.42-12-28.54-20.88h13.34c1.85,6.89,7.33,10.68,15.77,10.68,14.77,0,18.3-9.32,18.3-24.48v-5c-3.6,7.27-9.7,11.45-20.8,11.45-16.92,0-28.06-13.81-28.06-33.37,0-22,12.85-35.63,29.36-35.63,12.68,0,18.06,6,19.5,10.21.13-2.83.45-7.26.58-8.61h12.38c-.07,4.33-.21,13-.21,19.56ZM417,421.24c0,13.8,7.12,22.95,17.67,22.95,14,0,18-9.42,18-23.77,0-14.5-3.63-23.32-17.62-23.32C423.39,397.1,417,406.78,417,421.24Z"/><path class="cls-2" d="M283.12,168.67c0,71.67-43,133.37-126.67,133.37C75.64,302,33.34,243.31,33.34,169.55c0-74.94,46.72-132.49,126.71-132.49C235.38,37.06,283.12,89.85,283.12,168.67Zm-192.28-.24c0,50.27,22.07,88.3,67.72,88.3,49.52,0,67.05-41.47,67.05-87.36,0-48.71-20-87-68-87C111.14,82.37,90.84,118.3,90.84,168.43ZM269.9,346.07,159.12,296.49l72-39.85"/></svg>