<svg id="Capa_1" data-name="Capa 1" xmlns="http://www.w3.org/2000/svg" viewBox="0 0 1540 512"><defs><style>.cls-1{fill:#1d1d1b;}.cls-2{fill:#fff;}</style></defs><rect class="cls-1" x="19.93" y="12.26" width="665.49" height="488.82" rx="15"/><path class="cls-1" d="M670.42,15.26a12,12,0,0,1,12,12V486.08a12,12,0,0,1-12,12H34.93a12,12,0,0,1-12-12V27.26a12,12,0,0,1,12-12H670.42m0-6H34.93a18,18,0,0,0-18,18V486.08a18,18,0,0,0,18,18H670.42a18,18,0,0,0,18-18V27.26a18,18,0,0,0-18-18Z"/><path class="cls-2" d="M642.27,397h-56a195.4,195.4,0,0,1-5.84-34.84c-19.58,26.4-54.08,40.74-103.18,40.74-102.54,0-159.83-77.49-159.83-178.11,0-106.19,61.78-186.18,173.14-186.18,90.9,0,144.4,51.3,153,111.54H567.16c-7.25-23.66-25.92-51.64-77.61-51.64-72.53,0-93.22,60.66-93.22,122.94,0,60.79,23.67,120.65,93.7,120.65,65.31,0,77.33-45.34,77.33-76.94V262H489.9V199.36H642.27Z"/><path class="cls-1" d="M810.81,382.62c-9.26,13.47-22.47,24.07-45.31,24.07-21,0-39-15.45-39-47.75,0-41.5,26.51-82.23,65.74-82.23,22.69,0,33.64,11.89,35.91,22.79a203.69,203.69,0,0,1,5.21-20.29h11.73c-1.76,7.27-4.27,18.32-7.78,35.36L807.56,454.15H795.37Zm-71.59-24.24c0,22.83,10.15,36.48,30.24,36.48,28.55,0,44.67-27,50.65-56.4,6-29.78,0-49.92-29.5-49.92C758.79,288.54,739.22,324.89,739.22,358.38Z"/><path class="cls-1" d="M943.67,370.7c-2.5,11.25-4.75,23.5-6.5,33.5h-12c.25-4.23,2.48-16.42,4.21-24.34-7.79,14.72-22.51,26.83-43.65,26.83-22.51,0-38.21-11.58-30.5-47.17l17.51-80.31h12l-17,79.72c-4,18.13-4.17,36.41,20.34,36.41,22.56,0,41.65-16.63,50.09-56.6l12.76-59.53h12.22Z"/><path class="cls-1" d="M991.19,279.21h12.22l-26.49,125H964.69Zm12.46-59.07h12.22l-5,24.4H998.62Z"/><path class="cls-1" d="M1103.27,369.07c-9.69,24-27.41,37.62-52.19,37.62-30,0-43.37-20.94-43.37-49.22,0-38.45,21-80.76,62.85-80.76,31.7,0,41.46,23.37,40.2,41.08h-12.2c-.74-17.08-8.88-29.76-29.49-29.76-32.78,0-48.62,36.46-48.62,68.18,0,27.76,13.11,39.17,32.68,39.17,16.37,0,29.49-10.4,37.67-26.31Z"/><path class="cls-1" d="M1137.83,341c12.73-11,54.08-45,73.52-61.75h16.77c-19.45,16.5-38.92,32.51-57.88,48.5l35.84,76.49h-14l-31.68-68.94-25.15,19.67-10.45,49.27h-12.22l39-184.06h12.22Z"/><path class="cls-1" d="M1328.13,392.79c0,40.58-16.76,63.69-58.11,63.69-38.4,0-50.2-21.51-52.49-38.73h22.29c3.7,13.88,14.84,21.24,31.14,21.24,28.76,0,35.89-18.24,35.89-47.4V381.34c-6.74,14.2-18.36,22.24-39.59,22.24-31.17,0-52.41-25.41-52.41-62.54,0-41.34,24.07-66.5,54.69-66.5,24.15,0,34.44,11.37,37.31,19.77.25-5.74.77-14.13,1-16.77h20.67c-.08,7.32-.41,24.4-.41,36.57Zm-90.58-52.69c0,26.72,13.88,44.84,34.59,44.84,27.33,0,35.32-18.34,35.32-46.48,0-28.46-7.52-45.37-34.57-45.37C1249.47,293.09,1237.55,312.69,1237.55,340.1Z"/><path class="cls-1" d="M1352.92,220.81h21.86v27.33h-21.86Zm0,56.73h21.86V404.2h-21.86Z"/><path class="cls-1" d="M1504,392.79c0,40.58-16.77,63.69-58.11,63.69-38.4,0-50.21-21.51-52.5-38.73h22.29c3.7,13.88,14.84,21.24,31.15,21.24,28.76,0,35.89-18.24,35.89-47.4V381.34c-6.75,14.2-18.36,22.24-39.59,22.24-31.17,0-52.41-25.41-52.41-62.54,0-41.34,24.06-66.5,54.69-66.5,24.15,0,34.43,11.37,37.31,19.77.25-5.74.76-14.13,1-16.77h20.68c-.09,7.32-.41,24.4-.41,36.57ZM1413.4,340.1c0,26.72,13.88,44.84,34.58,44.84,27.34,0,35.32-18.34,35.32-46.48,0-28.46-7.51-45.37-34.57-45.37C1425.32,293.09,1413.4,312.69,1413.4,340.1Z"/><path class="cls-2" d="M389.25,225.26c0,98.32-59,183-173.77,183-110.87,0-168.89-80.57-168.89-181.76,0-102.81,64.09-181.76,173.83-181.76C323.77,44.71,389.25,117.12,389.25,225.26Zm-263.77-.33c0,69,30.26,121.14,92.89,121.14,67.94,0,92-56.89,92-119.85,0-66.83-27.37-119.35-93.22-119.35C153.33,106.87,125.48,156.15,125.48,224.93Zm245.64,243.7-152-68,98.73-54.68"/></svg>