<svg id="Capa_1" data-name="Capa 1" xmlns="http://www.w3.org/2000/svg" viewBox="0 0 1540 512"><defs><style>.cls-1{fill:#fff;}</style></defs><path class="cls-1" d="M630.06,402H572.41a202,202,0,0,1-6-35.87c-20.16,27.18-55.68,41.95-106.24,41.95-105.59,0-164.59-79.8-164.59-183.41,0-109.35,63.62-191.73,178.29-191.73,93.61,0,148.7,52.84,157.52,114.86H552.71c-7.47-24.36-26.69-53.17-79.92-53.17-74.68,0-96,62.47-96,126.6,0,62.59,24.37,124.23,96.48,124.23,67.26,0,79.64-46.68,79.64-79.23v-3.29H473.16V198.45h156.9Z"/><path class="cls-1" d="M749.26,380.42c-10.39,15.1-25.19,27-50.8,27-23.54,0-43.75-17.32-43.75-53.53,0-46.52,29.72-92.18,73.7-92.18,25.43,0,37.71,13.33,40.25,25.55a229,229,0,0,1,5.84-22.75h13.14c-2,8.16-4.78,20.54-8.72,39.64L745.62,460.6H731.94ZM669,353.25c0,25.59,11.39,40.9,33.91,40.9,32,0,50.07-30.29,56.77-63.23,6.68-33.38,0-55.95-33.07-55.95C691,275,669,315.72,669,353.25Z"/><path class="cls-1" d="M898.19,367.06c-2.8,12.61-5.33,26.34-7.29,37.55H877.49c.28-4.74,2.78-18.4,4.72-27.28-8.73,16.51-25.23,30.08-48.93,30.08-25.23,0-42.83-13-34.18-52.88l19.62-90h13.42l-19,89.37c-4.46,20.32-4.68,40.81,22.79,40.81,25.29,0,46.69-18.64,56.15-63.44l14.31-66.74H920Z"/><path class="cls-1" d="M951.45,264.5h13.71L935.45,404.61h-13.7Zm14-66.21h13.7l-5.64,27.35h-13.7Z"/><path class="cls-1" d="M1077.09,365.23c-10.86,26.89-30.73,42.18-58.5,42.18-33.67,0-48.61-23.48-48.61-55.18,0-43.1,23.53-90.53,70.44-90.53,35.54,0,46.48,26.2,45.07,46.05h-13.68c-.83-19.15-10-33.36-33.06-33.36-36.74,0-54.5,40.87-54.5,76.43,0,31.12,14.7,43.91,36.63,43.91,18.36,0,33.07-11.66,42.23-29.5Z"/><path class="cls-1" d="M1115.83,333.72c14.27-12.35,60.63-50.46,82.42-69.22h18.8c-21.81,18.51-43.63,36.45-64.89,54.37l40.18,85.74h-15.72l-35.51-77.28-28.2,22.06-11.71,55.22h-13.69l43.67-206.32h13.69Z"/><path class="cls-1" d="M1329.16,391.82c0,45.49-18.79,71.39-65.14,71.39-43,0-56.28-24.11-58.85-43.4h25c4.15,15.55,16.64,23.8,34.91,23.8,32.24,0,40.23-20.45,40.23-53.13V379c-7.55,15.92-20.58,24.93-44.38,24.93-34.94,0-58.75-28.49-58.75-70.1,0-46.35,27-74.55,61.31-74.55,27.07,0,38.6,12.74,41.82,22.16.28-6.44.86-15.84,1.14-18.8h23.18c-.1,8.21-.46,27.36-.46,41Zm-101.54-59.06c0,29.95,15.56,50.26,38.77,50.26,30.64,0,39.59-20.56,39.59-52.1,0-31.91-8.42-50.86-38.75-50.86C1241,280.06,1227.62,302,1227.62,332.76Z"/><path class="cls-1" d="M1356.94,199h24.51v30.63h-24.51Zm0,63.59h24.51v142h-24.51Z"/><path class="cls-1" d="M1526.27,391.82c0,45.49-18.79,71.39-65.14,71.39-43,0-56.28-24.11-58.85-43.4h25c4.15,15.55,16.64,23.8,34.92,23.8,32.23,0,40.23-20.45,40.23-53.13V379c-7.56,15.92-20.58,24.93-44.38,24.93-34.94,0-58.75-28.49-58.75-70.1,0-46.35,27-74.55,61.3-74.55,27.08,0,38.61,12.74,41.83,22.16.28-6.44.86-15.84,1.14-18.8h23.17c-.09,8.21-.46,27.36-.46,41Zm-101.53-59.06c0,29.95,15.55,50.26,38.76,50.26,30.64,0,39.6-20.56,39.6-52.1,0-31.91-8.43-50.86-38.75-50.86C1438.1,280.06,1424.74,302,1424.74,332.76Z"/><path class="cls-1" d="M369.51,225.12c0,101.24-60.79,188.41-178.94,188.41-114.16,0-173.92-83-173.92-187.17,0-105.86,66-187.16,179-187.16C302.08,39.2,369.51,113.76,369.51,225.12Zm-271.62-.34c0,71,31.17,124.74,95.66,124.74,69.95,0,94.73-58.58,94.73-123.41,0-68.82-28.2-122.9-96-122.9C126.57,103.21,97.89,154,97.89,224.78Zm253,251-156.49-70L296,349.39"/></svg>