<svg id="Capa_1" data-name="Capa 1" xmlns="http://www.w3.org/2000/svg" viewBox="0 0 1540 512"><defs><style>.cls-1{fill:#fff;}</style></defs><path class="cls-1" d="M1512.73,16.7a12,12,0,0,1,12,12v456a12,12,0,0,1-12,12H33.14a12,12,0,0,1-12-12V28.7a12,12,0,0,1,12-12H1512.73m0-12H33.14a24,24,0,0,0-24,24v456a24,24,0,0,0,24,24H1512.73a24,24,0,0,0,24-24V28.7a24,24,0,0,0-24-24Z"/><path class="cls-1" d="M636.87,396.23H581.21a195.16,195.16,0,0,1-5.81-34.63c-19.46,26.24-53.76,40.5-102.57,40.5-101.95,0-158.9-77.05-158.9-177.07,0-105.58,61.41-185.11,172.13-185.11,90.37,0,143.55,51,152.07,110.89H562.19C555,127.29,536.42,99.48,485,99.48c-72.1,0-92.67,60.31-92.67,122.22,0,60.43,23.52,119.94,93.15,119.94,64.93,0,76.88-45.06,76.88-76.49V262h-77V199.73H636.87Z"/><path class="cls-1" d="M752,375.42c-10,14.57-24.32,26.05-49,26.05-22.73,0-42.24-16.72-42.24-51.68,0-44.91,28.69-89,71.14-89,24.56,0,36.42,12.87,38.87,24.66a220.51,220.51,0,0,1,5.64-22H789c-1.91,7.87-4.62,19.83-8.42,38.27L748.43,452.82h-13.2Zm-77.49-26.23c0,24.7,11,39.48,32.74,39.48,30.89,0,48.34-29.24,54.81-61.05,6.44-32.23,0-54-31.92-54C695.65,273.61,674.46,313,674.46,349.19Z"/><path class="cls-1" d="M895.73,362.52c-2.7,12.17-5.14,25.43-7,36.25h-13c.27-4.58,2.68-17.77,4.56-26.34-8.43,15.94-24.36,29-47.24,29-24.37,0-41.35-12.54-33-51.05L819,263.5h13l-18.39,86.28c-4.3,19.62-4.51,39.4,22,39.4,24.41,0,45.08-18,54.21-61.25L903.6,263.5h13.22Z"/><path class="cls-1" d="M947.16,263.5h13.22L931.71,398.77H918.48Zm13.48-63.92h13.23L968.42,226H955.19Z"/><path class="cls-1" d="M1068.45,360.75c-10.48,26-29.66,40.72-56.48,40.72-32.5,0-46.93-22.66-46.93-53.27,0-41.61,22.72-87.4,68-87.4,34.31,0,44.87,25.29,43.51,44.45h-13.21c-.8-18.48-9.6-32.21-31.91-32.21-35.47,0-52.62,39.46-52.62,73.8,0,30,14.19,42.39,35.37,42.39,17.72,0,31.92-11.25,40.77-28.48Z"/><path class="cls-1" d="M1105.85,330.33c13.78-11.93,58.54-48.72,79.58-66.83h18.14c-21,17.86-42.12,35.19-62.64,52.49l38.79,82.78h-15.18l-34.28-74.61L1103,345.45l-11.31,53.32h-13.22l42.16-199.19h13.22Z"/><path class="cls-1" d="M1311.81,386.42c0,43.92-18.14,68.93-62.89,68.93-41.56,0-54.33-23.28-56.81-41.91h24.12c4,15,16.06,23,33.71,23,31.12,0,38.84-19.74,38.84-51.3V374c-7.3,15.37-19.87,24.07-42.85,24.07-33.73,0-56.72-27.5-56.72-67.68,0-44.74,26-72,59.19-72,26.14,0,37.27,12.3,40.38,21.39.27-6.21.83-15.29,1.1-18.15h22.37c-.09,7.93-.44,26.41-.44,39.58Zm-98-57c0,28.92,15,48.53,37.43,48.53,29.58,0,38.23-19.86,38.23-50.31,0-30.8-8.14-49.1-37.42-49.1C1226.68,278.52,1213.78,299.73,1213.78,329.4Z"/><path class="cls-1" d="M1338.63,200.3h23.66v29.58h-23.66Zm0,61.39h23.66V398.77h-23.66Z"/><path class="cls-1" d="M1502.11,386.42c0,43.92-18.14,68.93-62.89,68.93-41.55,0-54.33-23.28-56.81-41.91h24.13c4,15,16.06,23,33.7,23,31.13,0,38.85-19.74,38.85-51.3V374c-7.3,15.37-19.88,24.07-42.85,24.07-33.73,0-56.72-27.5-56.72-67.68,0-44.74,26-72,59.19-72,26.13,0,37.26,12.3,40.38,21.39.27-6.21.82-15.29,1.09-18.15h22.38c-.09,7.93-.45,26.41-.45,39.58Zm-98-57c0,28.92,15,48.53,37.43,48.53,29.58,0,38.22-19.86,38.22-50.31,0-30.8-8.13-49.1-37.41-49.1C1417,278.52,1404.09,299.73,1404.09,329.4Z"/><path class="cls-1" d="M385.32,225.48c0,97.74-58.69,181.9-172.76,181.9-110.22,0-167.91-80.1-167.91-180.7C44.65,124.47,108.37,46,217.47,46,320.21,46,385.32,118,385.32,225.48Zm-262.24-.33c0,68.57,30.09,120.43,92.36,120.43,67.53,0,91.45-56.55,91.45-119.14,0-66.44-27.22-118.66-92.68-118.66C150.77,107.78,123.08,156.77,123.08,225.15ZM367.3,467.43,216.21,399.81l98.15-54.35"/></svg>