<svg id="Capa_1" data-name="Capa 1" xmlns="http://www.w3.org/2000/svg" viewBox="0 0 512 512"><defs><style>.cls-1{fill:#1d1d1b;}.cls-2{fill:#fff;}</style></defs><rect class="cls-1" width="512" height="512"/><path class="cls-2" d="M438,239.9c0,100.78-60.51,187.55-178.13,187.55-113.65,0-173.13-82.59-173.13-186.31,0-105.39,65.7-186.32,178.2-186.32C370.83,54.82,438,129.05,438,239.9Zm-270.39-.34c0,70.7,31,124.18,95.23,124.18,69.63,0,94.29-58.32,94.29-122.85,0-68.51-28.06-122.35-95.56-122.35C196.12,118.54,167.57,169.05,167.57,239.56ZM419.38,489.37,263.59,419.65l101.21-56"/></svg>