<svg id="Capa_1" data-name="Capa 1" xmlns="http://www.w3.org/2000/svg" viewBox="0 0 1540 512"><defs><style>.cls-1{fill:#fff;}.cls-2{fill:#1d1d1b;}</style></defs><rect class="cls-1" x="12.24" y="13.27" width="670.92" height="486.64" rx="15"/><path class="cls-2" d="M668.16,16.27a12,12,0,0,1,12,12V484.91a12,12,0,0,1-12,12H27.24a12,12,0,0,1-12-12V28.27a12,12,0,0,1,12-12H668.16m0-6H27.24a18,18,0,0,0-18,18V484.91a18,18,0,0,0,18,18H668.16a18,18,0,0,0,18-18V28.27a18,18,0,0,0-18-18Z"/><path class="cls-2" d="M639.68,401.16H583.23A197.6,197.6,0,0,1,577.34,366c-19.74,26.62-54.52,41.08-104,41.08-103.39,0-161.15-78.13-161.15-179.58,0-107.06,62.29-187.72,174.56-187.72,91.65,0,145.59,51.73,154.23,112.46h-77c-7.31-23.85-26.13-52.06-78.24-52.06-73.13,0-94,61.16-94,124,0,61.29,23.86,121.64,94.47,121.64,65.84,0,78-45.7,78-77.57V265h-78.1V201.88H639.68Z"/><path class="cls-2" d="M805.6,379.4c-9.34,13.58-22.66,24.27-45.69,24.27-21.18,0-39.35-15.58-39.35-48.14,0-41.85,26.73-82.91,66.28-82.91,22.88,0,33.92,12,36.21,23a206.55,206.55,0,0,1,5.25-20.46h11.82c-1.77,7.33-4.3,18.47-7.84,35.65l-30,140.72H790ZM733.41,355c0,23,10.24,36.78,30.5,36.78,28.78,0,45-27.24,51.06-56.87,6-30,0-50.32-29.74-50.32C753.15,284.55,733.41,321.2,733.41,355Z"/><path class="cls-2" d="M939.55,367.38c-2.52,11.34-4.79,23.69-6.56,33.78H920.93c.25-4.27,2.5-16.55,4.25-24.54-7.85,14.84-22.69,27.05-44,27.05-22.7,0-38.52-11.68-30.75-47.56l17.65-81h12.07L863,355.52c-4,18.28-4.2,36.7,20.51,36.7,22.74,0,42-16.76,50.5-57.06l12.87-60H959.2Z"/><path class="cls-2" d="M987.46,275.14h12.32l-26.71,126H960.75ZM1000,215.59h12.33l-5.08,24.59H995Z"/><path class="cls-2" d="M1100.45,365.74c-9.76,24.18-27.63,37.93-52.61,37.93-30.28,0-43.72-21.11-43.72-49.63,0-38.76,21.17-81.42,63.36-81.42,32,0,41.8,23.56,40.53,41.41h-12.3c-.75-17.22-9-30-29.73-30-33,0-49,36.76-49,68.74,0,28,13.22,39.5,32.94,39.5,16.52,0,29.74-10.49,38-26.53Z"/><path class="cls-2" d="M1135.3,337.39c12.84-11.11,54.53-45.38,74.13-62.25h16.91c-19.61,16.64-39.24,32.78-58.36,48.9l36.14,77.12H1190L1158,331.65l-25.36,19.83-10.53,49.68h-12.32l39.27-185.57h12.32Z"/><path class="cls-2" d="M1329.22,388.82c0,41.09-16.62,65-59.78,65-40.4,0-51.83-22.62-53.94-39.47h25.21c3.5,13,13.85,20.2,29.81,20.2,27.93,0,34.59-17.61,34.59-46.27v-9.55c-6.79,13.73-18.34,21.63-39.31,21.63-32,0-53-26.1-53-63.07,0-41.51,24.29-67.36,55.49-67.36,24,0,34.14,11.29,36.86,19.3.26-5.35.85-13.71,1.1-16.27h23.4c-.11,8.19-.39,24.65-.39,37Zm-90.87-52.62c0,26.08,13.46,43.39,33.4,43.39,26.45,0,34.07-17.81,34.07-44.94,0-27.41-6.87-44.08-33.31-44.08C1250.42,290.57,1238.35,308.87,1238.35,336.2Z"/><path class="cls-2" d="M1353.17,216.46h24.72V244.9h-24.72Zm0,56.49h24.72V401.16h-24.72Z"/><path class="cls-2" d="M1509.78,388.82c0,41.09-16.62,65-59.77,65-40.41,0-51.84-22.62-53.94-39.47h25.2c3.51,13,13.85,20.2,29.81,20.2,27.94,0,34.6-17.61,34.6-46.27v-9.55c-6.8,13.73-18.34,21.63-39.31,21.63-32,0-53-26.1-53-63.07,0-41.51,24.29-67.36,55.5-67.36,24,0,34.13,11.29,36.86,19.3.25-5.35.85-13.71,1.1-16.27h23.39c-.11,8.19-.39,24.65-.39,37Zm-90.86-52.62c0,26.08,13.46,43.39,33.4,43.39,26.44,0,34.07-17.81,34.07-44.94,0-27.41-6.87-44.08-33.31-44.08C1431,290.57,1418.92,308.87,1418.92,336.2Z"/><path class="cls-2" d="M384.57,225.47c0,99.13-59.51,184.47-175.2,184.47-111.77,0-170.28-81.23-170.28-183.25C39.09,123,103.71,43.43,214.36,43.43,318.55,43.43,384.57,116.44,384.57,225.47Zm-265.94-.33c0,69.53,30.52,122.13,93.66,122.13,68.49,0,92.75-57.36,92.75-120.83,0-67.38-27.6-120.34-94-120.34C146.71,106.1,118.63,155.79,118.63,225.14ZM366.3,470.84,213.07,402.27l99.55-55.13"/></svg>